HIERARCHY
ROOT SpineBase
{
  OFFSET 0.000000 0.000000 0.000000
  CHANNELS 6 Xposition Yposition Zposition Zrotation Xrotation Yrotation
  JOINT SpineMid
  {
    OFFSET 0.000000 28.830950 0.000000
    CHANNELS 3 Zrotation Xrotation Yrotation
    JOINT SpineShoulder
    {
      OFFSET -0.156879 21.434643 -0.546694
      CHANNELS 3 Zrotation Xrotation Yrotation
      JOINT Neck
      {
        OFFSET -0.045603 7.107246 -0.457405
        CHANNELS 3 Zrotation Xrotation Yrotation
        JOINT Head
        {
          OFFSET -1.939321 11.022847 -1.075412
          CHANNELS 3 Zrotation Xrotation Yrotation
          End Site
          {
            OFFSET 0 0 0
          }
        }
      }
      JOINT ShoulderLeft
      {
        OFFSET -16.257269 -1.680685 6.776623
        CHANNELS 3 Zrotation Xrotation Yrotation
        JOINT ElbowLeft
        {
          OFFSET -3.919477 -27.026314 2.927663
          CHANNELS 3 Zrotation Xrotation Yrotation
          JOINT WristLeft
          {
            OFFSET -1.479267 -20.254606 -2.373715
            CHANNELS 3 Zrotation Xrotation Yrotation
            JOINT HandLeft
            {
              OFFSET -0.052396 -6.683546 -1.869100
              CHANNELS 3 Zrotation Xrotation Yrotation
              JOINT HandTipLeft
              {
                OFFSET -0.432064 -7.329080 -0.521672
                CHANNELS 3 Zrotation Xrotation Yrotation
                End Site
                {
                  OFFSET 0 0 0
                }
              }
              JOINT ThumbLeft
              {
                OFFSET -1.929805 -1.806595 -1.102558
                CHANNELS 3 Zrotation Xrotation Yrotation
                End Site
                {
                  OFFSET 0 0 0
                }
              }
            }
          }
        }
      }
      JOINT ShoulderRight
      {
        OFFSET 14.584025 -2.154100 -5.717542
        CHANNELS 3 Zrotation Xrotation Yrotation
        JOINT ElbowRight
        {
          OFFSET 5.974950 -23.269902 -1.486720
          CHANNELS 3 Zrotation Xrotation Yrotation
          JOINT WristRight
          {
            OFFSET -2.466781 -19.728099 -5.256372
            CHANNELS 3 Zrotation Xrotation Yrotation
            JOINT HandRight
            {
              OFFSET -3.891501 -4.871681 0.750087
              CHANNELS 3 Zrotation Xrotation Yrotation
              JOINT HandTipRight
              {
                OFFSET -1.037822 -6.481163 -0.492402
                CHANNELS 3 Zrotation Xrotation Yrotation
                End Site
                {
                  OFFSET 0 0 0
                }
              }
              JOINT ThumbRight
              {
                OFFSET -1.809117 1.125130 -1.159714
                CHANNELS 3 Zrotation Xrotation Yrotation
                End Site
                {
                  OFFSET 0 0 0
                }
              }
            }
          }
        }
      }
    }
  }
  JOINT HipLeft
  {
    OFFSET -7.367009 0.408217 -1.295988
    CHANNELS 3 Zrotation Xrotation Yrotation
    JOINT KneeLeft
    {
      OFFSET 3.798476 -29.249776 6.782109
      CHANNELS 3 Zrotation Xrotation Yrotation
      JOINT AnkleLeft
      {
        OFFSET 4.068223 -37.855873 5.106807
        CHANNELS 3 Zrotation Xrotation Yrotation
        JOINT FootLeft
        {
          OFFSET 2.248881 -6.734246 -7.430626
          CHANNELS 3 Zrotation Xrotation Yrotation
          End Site
          {
            OFFSET 0 0 0
          }
        }
      }
    }
  }
  JOINT HipRight
  {
    OFFSET 6.998267 0.715344 -4.770236
    CHANNELS 3 Zrotation Xrotation Yrotation
    JOINT KneeRight
    {
      OFFSET 0.898300 -31.789524 4.055749
      CHANNELS 3 Zrotation Xrotation Yrotation
      JOINT AnkleRight
      {
        OFFSET 1.530574 -35.005277 5.643176
        CHANNELS 3 Zrotation Xrotation Yrotation
        JOINT FootRight
        {
          OFFSET -4.542723 -5.928576 -7.649769
          CHANNELS 3 Zrotation Xrotation Yrotation
          End Site
          {
            OFFSET 0 0 0
          }
        }
      }
    }
  }
}
MOTION
Frames: 7
Frame Time: 0.033333
28.490137 70.043241 382.480211 21.399046 -29.518105 26.443092 -1.528697 -0.503392 -19.993354 0.282140 -0.234378 0.716136 -64.901637 33.179007 28.164714 0.000000 0.000000 0.000000 -6.012747 -1.529058 7.087780 -3.261184 0.016399 -3.638807 20.496453 -15.500515 -14.410570 -24.496957 34.239260 13.299316 0.000000 0.000000 0.000000 0.000000 0.000000 0.000000 -1.685239 8.978810 -8.587861 -1.112605 -6.827096 7.869511 23.008448 6.528787 21.767213 -21.565161 23.983184 -22.992319 0.000000 0.000000 0.000000 0.000000 0.000000 0.000000 -6.400838 46.763637 -18.438351 -7.547062 -3.490788 -2.565063 3.595967 26.098077 15.526274 0.000000 0.000000 0.000000 -12.766267 44.839347 -15.862768 -1.540786 -0.348769 -0.476544 11.094998 33.262881 -25.511887 0.000000 0.000000 0.000000
29.727119 68.490914 383.471624 23.111437 -31.331847 27.901813 -1.455426 0.262345 -20.600888 0.430463 -0.259878 0.731830 -71.518407 33.364998 32.325180 0.000000 0.000000 0.000000 -5.552897 -1.586517 7.392142 -2.787663 -2.742930 -3.930802 14.918168 -8.113637 -13.992091 -19.891883 32.184552 10.741701 0.000000 0.000000 0.000000 0.000000 0.000000 0.000000 -0.389001 8.099407 -9.764670 -2.818644 -5.692213 8.622394 22.341689 2.680457 28.557010 -20.702679 29.948400 -26.061518 0.000000 0.000000 0.000000 0.000000 0.000000 0.000000 -7.734816 49.809436 -18.281075 -7.140579 -3.770630 -2.477815 -1.775472 32.004817 22.761500 0.000000 0.000000 0.000000 -14.534099 48.419957 -15.122905 -0.748984 -0.146753 -0.298848 -3.402342 50.796129 -16.168896 0.000000 0.000000 0.000000
31.122851 67.081983 385.191995 24.361200 -34.022234 28.576073 -1.121414 -0.078848 -20.337264 -0.069042 0.558123 0.753755 -72.682537 36.506624 35.618476 0.000000 0.000000 0.000000 -7.603903 -2.509058 8.499581 0.792269 -3.491648 -5.297535 13.276170 -5.030499 -14.743034 -24.325407 27.365353 14.446207 0.000000 0.000000 0.000000 0.000000 0.000000 0.000000 2.391157 7.121661 -11.707319 -9.047740 -2.054253 10.765117 22.754675 -5.320150 36.719301 -16.286414 36.921015 -30.323927 0.000000 0.000000 0.000000 0.000000 0.000000 0.000000 -12.879802 54.761209 -14.627616 -2.002231 -3.221800 -0.756138 -1.746012 46.962036 23.592606 0.000000 0.000000 0.000000 -19.687826 53.475843 -10.861021 3.674570 -0.345333 0.740127 -8.267689 53.613695 -13.959524 0.000000 0.000000 0.000000
31.799704 64.301119 385.995099 23.704109 -35.420576 21.027977 -0.704357 0.204108 -12.876117 0.074952 0.372311 0.732025 -67.827340 42.758286 36.344575 0.000000 0.000000 0.000000 -9.253203 -4.812119 9.564770 4.392387 -3.351575 -6.928950 14.675295 -1.983421 -17.444304 -27.120416 23.997517 16.179737 0.000000 0.000000 0.000000 0.000000 0.000000 0.000000 5.312379 7.155243 -13.166990 -17.466277 0.032059 13.683715 23.833869 -15.316511 42.733997 -6.191882 39.890145 -37.063009 0.000000 0.000000 0.000000 0.000000 0.000000 0.000000 -25.985412 51.531450 -0.340733 3.409349 1.484434 1.718397 -17.433760 56.968084 37.978581 0.000000 0.000000 0.000000 -28.652332 54.673622 1.636776 2.449404 -2.852054 0.213944 -19.954536 52.206346 -0.396150 0.000000 0.000000 0.000000
32.756663 62.689148 388.245870 23.643862 -37.981681 25.897950 -0.569225 0.018577 -17.216428 -0.162973 1.005446 0.685638 -54.584799 51.776306 31.970175 0.000000 0.000000 0.000000 -10.168681 -5.161508 10.274925 5.853982 -3.522554 -7.607994 21.858961 6.194003 -25.597223 -31.125460 10.754305 18.182594 0.000000 0.000000 0.000000 0.000000 0.000000 0.000000 6.637472 8.820319 -14.209320 -23.133856 1.621066 15.797265 29.962681 -18.366323 43.113226 -2.479829 40.314560 -41.466839 0.000000 0.000000 0.000000 0.000000 0.000000 0.000000 -24.005614 60.758045 -2.783230 8.613123 -1.027837 3.060855 -38.958770 53.716529 56.265511 0.000000 0.000000 0.000000 -28.413742 60.436735 -0.002748 6.356594 -1.786725 1.477410 -11.364441 32.862845 -4.129509 0.000000 0.000000 0.000000
33.720075 60.809193 389.796274 23.451117 -39.870145 23.629772 -0.501962 -0.112718 -14.615509 -0.028616 0.769779 0.675063 -38.862577 58.719958 23.232102 0.000000 0.000000 0.000000 -10.846703 -5.382335 10.992484 5.640575 -2.590605 -7.658379 37.357717 17.928322 -41.400825 -44.099990 -1.402240 17.073071 0.000000 0.000000 0.000000 0.000000 0.000000 0.000000 7.959703 9.662663 -15.444632 -28.014986 3.424799 17.956382 30.118905 -19.509418 39.925882 -0.034561 40.266459 -41.308930 0.000000 0.000000 0.000000 0.000000 0.000000 0.000000 -33.423728 63.402643 7.252482 12.917979 -0.737225 4.759366 -51.780147 42.240332 64.806776 0.000000 0.000000 0.000000 -38.223526 62.531536 10.365417 8.618032 -1.820409 2.258814 -3.567476 12.509607 -4.171546 0.000000 0.000000 0.000000
34.562075 59.256642 390.727667 23.191662 -41.182584 16.315611 -0.620198 0.082528 -7.090450 0.196016 -0.136634 0.729098 -19.689102 61.603347 9.617606 0.000000 0.000000 0.000000 -11.221301 -4.877826 11.431719 5.687618 -1.931694 -7.724924 61.854368 37.475771 -67.481910 -39.145487 -33.532333 9.382568 0.000000 0.000000 0.000000 0.000000 0.000000 0.000000 6.274153 11.366939 -15.061894 -30.025484 6.081551 19.284370 21.042057 -21.945631 33.517464 8.459946 34.282577 -39.314677 0.000000 0.000000 0.000000 0.000000 0.000000 0.000000 -48.658147 58.925664 23.149583 18.344407 2.100653 6.898250 -57.727013 35.324266 64.996776 0.000000 0.000000 0.000000 -54.546992 60.549745 28.026170 8.798686 -4.017656 2.220175 5.638869 1.822251 -5.984606 0.000000 0.000000 0.000000
